PathFileType  4	(X/Y/Z) C:\Users\antoi\Documents\MyRepositories\mobilecap\ResultsAnalysis
DataRate	CameraRate	NumFrames	NumMarkers	Units	OrigDataRate	OrigDataStartFrame	OrigNumFrames
100.0	100.0	6	51	mm	100.0	329	1312
Frame#	Time	r_knee			r_shank_antsup			r_ankle			r_calc			r_5meta			r_toe			L_knee			L_shank_antsup			L_ankle			L_calc			L_5meta			L_toe			r_sh2			r_sh3			r_sh4			L_sh2			L_sh3			r_thigh1			r_thigh2			r_thigh3			r_thigh4			r_thigh5			L_thigh1			L_thigh2			L_thigh3			L_thigh4			r.ASIS			r.PSIS			L.ASIS			L.PSIS			C7			R_Shoulder			L_Shoulder			R_Sternum			L_Sternum			R_humerus			R_elbow_med			R_elbow_lat			R_forearm			R_wrist_radius			R_wrist_ulna			L_humerus			L_elbow_med			L_elbow_lat			L_forearm			L_wrist_radius			L_wrist_ulna			R_HJC			L_HJC			R_HJC_reg			L_HJC_reg			
		X1	Y1	Z1	X2	Y2	Z2	X3	Y3	Z3	X4	Y4	Z4	X5	Y5	Z5	X6	Y6	Z6	X7	Y7	Z7	X8	Y8	Z8	X9	Y9	Z9	X10	Y10	Z10	X11	Y11	Z11	X12	Y12	Z12	X13	Y13	Z13	X14	Y14	Z14	X15	Y15	Z15	X16	Y16	Z16	X17	Y17	Z17	X18	Y18	Z18	X19	Y19	Z19	X20	Y20	Z20	X21	Y21	Z21	X22	Y22	Z22	X23	Y23	Z23	X24	Y24	Z24	X25	Y25	Z25	X26	Y26	Z26	X27	Y27	Z27	X28	Y28	Z28	X29	Y29	Z29	X30	Y30	Z30	X31	Y31	Z31	X32	Y32	Z32	X33	Y33	Z33	X34	Y34	Z34	X35	Y35	Z35	X36	Y36	Z36	X37	Y37	Z37	X38	Y38	Z38	X39	Y39	Z39	X40	Y40	Z40	X41	Y41	Z41	X42	Y42	Z42	X43	Y43	Z43	X44	Y44	Z44	X45	Y45	Z45	X46	Y46	Z46	X47	Y47	Z47	X48	Y48	Z48	X49	Y49	Z49	X50	Y50	Z50	X51	Y51	Z51	

329	3.28000000	-95.43263	472.42992	-373.27338	-85.95104	397.41749	-345.47307	-287.45664	104.17564	-385.84835	-346.89718	53.47551	-435.56078	-164.13982	38.93564	-315.76466	-120.34180	63.15348	-368.57832	-89.92428	478.19892	-898.16006	-93.34244	372.78635	-923.04972	-275.28952	101.96109	-886.80380	-341.06449	53.11939	-843.31970	-142.33595	35.86635	-962.18671	-105.44839	61.52130	-903.65298	-141.11062	298.27165	-347.35326	-150.85134	434.93783	-347.97449	-214.09845	336.07435	-352.67879	-169.06970	420.36939	-911.25840	-222.03623	310.51683	-909.95718	-310.54316	693.65305	-398.11676	-212.83667	646.92271	-387.54537	-216.42884	591.38568	-352.51613	-358.44758	587.63719	-401.07723	-254.33813	551.61943	-377.05145	-305.31174	694.86822	-828.45308	-185.75515	634.30594	-863.45050	-362.31019	590.06370	-836.88386	-238.15403	538.94188	-874.92236	-316.15451	731.27930	-477.52735	-470.62065	830.53385	-574.10013	-299.49873	715.81524	-739.73008	-465.13923	822.97589	-675.86936	-161.23913	1225.49410	-590.26616	-140.25469	1156.08455	-416.12034	-90.32471	1171.93966	-745.70548	-51.32346	1098.85855	-545.42060	-45.11775	1098.85523	-601.80982	-313.81461	955.59184	-328.64174	-383.06290	878.91294	-405.70162	-381.24791	890.73718	-317.51107	-307.23623	749.98141	-287.19308	-249.76086	653.22131	-284.92530	-292.20527	641.95554	-280.02356	-231.21095	980.94176	-871.89165	-325.66091	915.97403	-827.23850	-301.05630	926.01571	-897.03082	-262.58790	757.07009	-936.78587	-227.67790	666.06841	-941.32129	-265.88288	658.06447	-948.53305	-420.10688	686.44025	-490.38753	-403.52383	672.03213	-719.70581	-409.01207	686.47301	-516.77896	-399.69529	673.62795	-689.75509	
330	3.29000000	-94.90369	471.87039	-373.26189	-85.36761	396.95204	-345.53687	-287.39685	104.19346	-386.08037	-346.81893	53.47478	-435.64961	-164.17787	38.84703	-315.85812	-120.32458	63.13248	-368.56335	-88.84286	477.52549	-897.76736	-92.38492	372.43004	-922.60065	-275.09852	102.07646	-886.69838	-341.03889	53.17179	-843.21012	-142.30854	35.85647	-962.19115	-105.38501	61.37242	-903.54058	-140.49589	297.81663	-347.62758	-150.09293	434.66271	-347.72780	-213.55788	335.91354	-352.59982	-168.01165	419.98946	-910.49194	-221.52476	310.25628	-909.18298	-311.42998	691.20896	-398.57866	-213.53519	645.13952	-387.79081	-216.64023	589.66768	-352.76034	-358.49149	584.83456	-401.19639	-254.41319	550.00337	-376.99751	-306.20731	691.91409	-828.21300	-185.98224	632.33964	-863.04560	-362.29910	586.61642	-836.53770	-237.67265	536.60628	-874.44751	-317.00057	727.85980	-477.85348	-471.66201	826.77375	-574.69656	-300.41631	712.25602	-739.89088	-466.19582	819.00602	-676.21638	-160.35851	1220.35688	-590.17261	-140.04860	1150.43408	-416.11010	-89.08858	1166.60715	-745.55226	-50.96223	1093.19814	-545.28794	-44.55632	1093.33449	-601.53640	-314.51558	950.61872	-329.16317	-384.00729	874.12722	-406.66566	-382.24841	885.75953	-318.47669	-308.38993	745.07431	-288.06745	-250.96409	648.25048	-285.57181	-293.40642	636.86372	-281.07419	-230.01296	976.07044	-872.42149	-324.75937	910.93973	-828.10708	-299.88586	921.16328	-897.80042	-261.65817	752.21714	-937.78317	-226.80066	661.13509	-942.41969	-265.06068	653.22584	-949.74229	-420.90178	682.84579	-490.64387	-404.27048	668.20271	-719.94359	-409.80557	683.11567	-516.97998	-400.49921	669.89155	-689.82180	
331	3.30000000	-94.49370	471.35310	-373.27259	-84.94270	396.55317	-345.40238	-287.32244	104.18000	-386.31201	-346.77062	53.48249	-435.69420	-164.19352	38.85887	-315.84264	-120.31232	63.09806	-368.54705	-87.91417	476.85868	-897.50021	-91.44525	372.15191	-922.36834	-274.97065	102.13349	-886.68059	-340.96382	53.21106	-843.11567	-142.29643	35.80213	-962.19806	-105.36165	61.15387	-903.52522	-140.09228	297.56276	-347.67658	-149.64675	434.30178	-347.57641	-213.18885	335.68550	-352.58489	-167.11809	419.73383	-910.00165	-220.70674	309.99122	-908.77297	-312.57193	688.72957	-398.88440	-214.37990	643.52066	-387.95487	-217.02610	587.95691	-352.92744	-358.76527	582.14902	-401.20200	-254.57824	548.53176	-376.83647	-307.04053	689.14052	-828.16159	-186.25267	630.56755	-862.86787	-362.24546	583.64513	-836.90955	-237.16080	534.75859	-874.69891	-317.72584	724.62223	-477.99205	-472.63796	823.03917	-575.42602	-301.26857	708.76906	-739.94638	-467.22389	815.25575	-676.56749	-159.45526	1215.48731	-589.96175	-139.77208	1144.96212	-416.05248	-87.97100	1161.50899	-745.35958	-50.55863	1087.85009	-545.06449	-44.00495	1088.04302	-601.40683	-315.14414	945.74195	-329.98072	-384.49501	869.65319	-407.58431	-383.23770	881.13163	-319.33629	-309.57356	740.30362	-288.96598	-252.11885	643.50457	-286.35982	-294.54479	632.00684	-282.26123	-228.75089	971.30877	-872.72735	-323.80244	906.13795	-828.86654	-298.63057	916.46282	-898.55524	-260.65625	747.59161	-938.90985	-225.90937	656.39379	-943.58431	-264.12589	648.74110	-951.18275	-421.64989	679.42777	-490.83123	-404.90654	664.45213	-720.10125	-410.44410	679.57327	-517.03056	-401.19462	666.27598	-689.81959	
332	3.31000000	-94.10933	471.08587	-372.91011	-84.59086	396.22462	-345.13743	-287.21420	104.22711	-386.40394	-346.70855	53.50811	-435.80216	-164.18695	38.98363	-315.73343	-120.27421	63.09685	-368.56496	-87.19149	476.21630	-897.31714	-90.58797	371.75439	-922.25160	-274.89033	102.11491	-886.64958	-340.86790	53.24858	-843.05725	-142.29876	35.71938	-962.21476	-105.32771	60.97307	-903.57530	-139.88665	297.37365	-347.51183	-149.41804	433.87109	-347.64439	-212.99562	335.27082	-352.70873	-166.34441	419.40322	-909.67513	-219.78871	309.83358	-908.80068	-313.87551	686.21291	-398.98662	-215.22751	642.11722	-388.05327	-217.37342	586.47007	-352.79133	-359.29568	579.86540	-401.12453	-254.43013	546.89575	-376.66589	-307.86798	686.60872	-828.32502	-186.58664	628.96869	-862.83898	-362.21841	580.89541	-837.52750	-236.67571	533.11306	-875.13269	-318.60832	721.54763	-478.16208	-473.58161	819.50306	-575.96916	-302.06537	705.56456	-740.22523	-468.17511	811.67573	-677.02816	-158.60637	1210.85475	-589.77484	-139.39891	1139.77655	-415.89477	-86.99143	1156.68133	-745.11556	-50.15672	1082.77484	-544.77772	-43.41907	1083.07740	-601.13371	-315.69233	940.96090	-330.80567	-384.90017	865.53447	-408.59710	-384.11038	876.80692	-320.18985	-310.69700	735.65149	-289.92452	-253.28073	639.01347	-287.39885	-295.66144	627.51029	-283.45288	-227.46799	966.73722	-873.15240	-322.70809	901.62129	-829.84050	-297.28030	912.00213	-899.29183	-259.53024	743.09034	-939.88742	-224.90561	651.82184	-944.69332	-263.06218	644.35927	-952.44707	-422.42840	676.12310	-491.13462	-405.52319	660.98118	-720.38196	-411.19711	676.25499	-517.17098	-401.94914	662.86627	-690.03344	
333	3.32000000	-93.67727	471.30288	-371.76254	-84.26266	395.87244	-344.83618	-287.15736	104.30154	-386.47337	-346.62237	53.54963	-435.97977	-164.18263	39.09019	-315.65688	-120.21466	63.09289	-368.59579	-86.63959	475.62423	-897.33534	-89.92667	371.21105	-922.23332	-274.82475	102.07407	-886.63333	-340.81318	53.27043	-843.07067	-142.31137	35.61327	-962.24996	-105.28183	60.84662	-903.68960	-139.72109	296.98882	-347.33162	-149.18619	433.48076	-347.64634	-212.91984	334.70101	-352.97235	-165.67255	418.90506	-909.45879	-219.29875	309.72717	-908.78994	-315.00827	683.68382	-398.99785	-215.99455	640.77233	-388.15811	-217.34902	585.36378	-352.20686	-359.83543	577.94561	-401.10251	-254.08688	545.06820	-376.67099	-308.62135	684.26503	-828.49378	-186.95792	627.47107	-862.91428	-362.29200	578.06306	-837.53987	-236.42126	531.19322	-875.12936	-319.58537	718.60292	-478.53487	-474.52999	816.34612	-576.17232	-302.79804	702.68951	-740.64749	-469.05663	808.27617	-677.52410	-157.80006	1206.45814	-589.51741	-138.96787	1134.88947	-415.66491	-86.11676	1152.16665	-744.78625	-49.74380	1077.85704	-544.57422	-42.85978	1078.37290	-600.87937	-316.14706	936.46903	-331.24543	-385.59376	861.64452	-409.66374	-384.80785	872.62255	-321.04265	-311.67783	731.20257	-290.96094	-254.33720	634.73280	-288.56039	-296.76052	623.19556	-284.67577	-226.21265	962.45765	-873.59288	-321.58192	897.32311	-830.74642	-295.87357	907.82812	-900.06083	-258.25357	738.78699	-940.71181	-223.79100	647.44809	-945.71917	-261.93249	639.90701	-953.33856	-423.19812	672.96267	-491.52569	-406.17959	657.86635	-720.76770	-412.07176	673.49529	-517.51314	-402.73659	659.73174	-690.38139	
334	3.33000000	-93.34153	471.55879	-370.46844	-83.98741	395.47049	-344.50740	-287.15376	104.39236	-386.54229	-346.55789	53.57783	-436.12761	-164.20816	39.10689	-315.65190	-120.18998	63.03352	-368.58707	-86.12986	475.08770	-897.63205	-89.48135	370.69019	-922.29801	-274.76663	102.02283	-886.65167	-340.79980	53.26440	-843.12459	-142.33370	35.48621	-962.30224	-105.27676	60.71311	-903.85554	-139.51110	296.43530	-347.17709	-149.01618	433.12680	-347.44237	-212.77903	334.28694	-353.10967	-165.11901	418.49099	-909.63761	-219.26693	309.58301	-908.56136	-315.97807	681.30658	-399.18521	-216.78583	639.42884	-388.23711	-217.35523	584.29566	-351.66610	-360.19793	575.92300	-401.31198	-253.97607	543.33330	-376.74112	-309.29623	682.10173	-828.71307	-187.33451	626.10591	-863.15572	-362.41302	575.34641	-837.22410	-236.33411	529.21596	-874.96130	-320.40170	715.85515	-478.78084	-475.43713	813.45725	-576.35781	-303.40463	699.99837	-740.94042	-469.89296	805.14135	-677.91970	-156.98353	1202.30594	-589.06470	-138.54826	1130.22774	-415.41968	-85.29656	1147.92807	-744.37539	-49.30610	1073.07978	-544.42133	-42.54788	1073.72372	-600.86282	-316.46355	932.27720	-331.52765	-386.27689	857.91264	-410.49486	-385.38794	868.55851	-321.77983	-312.51500	727.02318	-292.00300	-255.24798	630.57312	-289.70765	-297.72067	618.93092	-286.02532	-224.91264	958.45601	-873.76191	-320.50832	893.28591	-831.49614	-294.49304	903.95291	-900.83811	-256.91723	734.84476	-941.56535	-222.65014	643.42540	-946.74531	-260.80980	635.75153	-954.21003	-423.88651	670.05100	-491.81198	-406.74462	654.96694	-721.04559	-412.83605	670.95320	-517.73609	-403.39928	656.79834	-690.60520	
